<svg width="30" height="30" viewBox="0 0 30 30" fill="none" xmlns="http://www.w3.org/2000/svg">
<path d="M24.2414 7.0459C24.2414 6.39867 23.7167 5.87402 23.0695 5.87402H6.91713C6.2699 5.87402 5.74526 6.39867 5.74526 7.0459V18.4131H24.2414V7.0459ZM22.6593 16.8311H7.32723V7.45605H22.6593V16.8311ZM24.3 19.292H5.68666L3.93125 22.3742C3.72471 22.7369 3.72664 23.1821 3.93647 23.543C4.14623 23.9039 4.53213 24.126 4.94961 24.126H25.0505C25.4687 24.126 25.8551 23.9032 26.0646 23.5413C26.2742 23.1795 26.275 22.7334 26.0669 22.3707L24.3 19.292ZM12.7627 22.4561L13.2314 21.0791H16.7763L17.2451 22.4561H12.7627Z" fill="black"/>
</svg>
