<svg width="132" height="56" viewBox="0 0 132 56" fill="none" xmlns="http://www.w3.org/2000/svg">
<path fill-rule="evenodd" clip-rule="evenodd" d="M62.9659 23.7393C62.9659 26.2117 62.7178 33.8763 62.7178 33.8763C62.7178 35.3593 63.214 36.0192 64.6192 36.0192V36.6791H59.0798V36.0192C60.485 36.0192 61.2293 35.3593 61.2293 33.8763L61.7254 21.3491C61.3126 20.3597 60.8988 20.0303 59.8241 19.9481V19.3713H64.0397L68.5043 31.0744L73.0503 19.3713H76.853V19.9481C75.7783 19.9481 75.1997 20.4428 75.1997 21.5964L75.6959 33.7111C75.6959 35.5245 76.0264 36.0192 77.514 36.0192V36.6791H71.1489V36.0192C72.3894 36.0192 72.9679 35.6076 72.8855 33.7111C72.8855 33.7111 72.6374 25.2224 72.5541 23.7393L69.4947 32.1459C69.0819 33.2164 68.6681 34.4531 68.3376 35.7719L67.3462 35.8549C67.0981 34.9477 66.4363 33.2995 66.4363 33.2995C66.4363 33.2995 63.8749 26.1296 62.9659 23.7393Z" fill="white"/>
<path fill-rule="evenodd" clip-rule="evenodd" d="M57.758 36.7612C57.4266 36.6791 57.0961 36.6791 56.7656 36.6791C56.1047 36.6791 54.9476 37.0085 53.5424 37.0085C48.1688 37.0085 44.2003 33.7951 44.2003 27.86C44.2003 22.8331 47.9207 18.9588 53.6238 18.9588C54.9466 18.9588 56.4342 19.2061 57.6746 19.7008C57.9227 19.4535 58.006 19.2883 58.2532 19.0409H58.7494C58.667 19.9472 58.3365 22.9143 58.3365 22.9143H57.8403C57.5099 21.1839 56.5999 20.0303 53.7072 20.0303C50.2358 20.0303 47.094 22.75 47.094 27.7769C47.094 33.4637 50.3173 35.9361 53.8729 35.9361C56.1871 35.9361 57.5932 34.6173 58.5022 32.9691L59.0808 33.2164L57.758 36.7612Z" fill="white"/>
<path fill-rule="evenodd" clip-rule="evenodd" d="M42.1333 22.5858H41.5547C41.4724 21.0196 40.9762 20.525 39.7358 20.525H37.3382V33.4647C37.3382 35.6076 37.752 36.0192 39.1563 36.0192V36.6791H32.956V36.0192C34.3612 36.0192 34.775 35.6076 34.775 33.3816V20.525H32.3775C30.8066 20.525 30.5585 20.9366 30.1456 22.5858H29.5671L29.9799 18.8776L30.3928 18.9588C30.5575 19.3714 30.889 19.3714 31.8804 19.3714H39.8987C41.3862 19.3714 41.7176 19.3714 42.0481 18.8776H42.5443L42.1333 22.5858Z" fill="white"/>
<path fill-rule="evenodd" clip-rule="evenodd" d="M24.6082 37.0907C23.4511 37.0907 22.5411 36.9255 21.8802 36.6791C21.2183 36.5139 20.7231 36.2675 20.475 36.1013C20.1436 36.4317 19.8964 36.8433 19.8964 36.8433L19.4003 36.6791L19.8131 32.8057L20.3917 32.8879C20.7221 34.7013 21.9626 36.0201 24.5249 36.0201C26.5086 36.0201 27.8314 34.3709 27.8314 32.5593C27.8314 31.0753 27.2529 30.3333 25.2691 28.8503C24.6072 28.4377 24.0287 28.1083 23.5335 27.6957C21.7145 26.5421 20.5574 25.2233 20.5574 23.0804C20.5574 20.608 22.6235 18.9588 25.3524 18.9588C26.9233 18.9588 27.9147 19.4535 28.2452 19.6187L28.8238 18.9588L29.2366 19.0419L28.8238 22.5857L28.2452 22.5036C28.2452 20.8553 27.2529 20.1133 25.5996 20.1133C24.0287 20.1133 22.8716 20.9375 22.8716 22.5036C22.8716 23.9045 23.9463 24.8117 25.1867 25.6349C25.8486 26.0465 26.3438 26.3769 26.84 26.7064C29.7337 28.7663 30.3946 30.0851 30.3946 32.0628C30.3946 34.9477 28.1628 37.0907 24.6082 37.0907Z" fill="white"/>
<path fill-rule="evenodd" clip-rule="evenodd" d="M15.1847 22.5857H14.5228C14.5228 21.1027 13.8609 20.5249 12.5391 20.5249H8.81873V27.0359H11.2163C12.4567 27.0359 12.7048 26.3769 12.8695 25.3055H13.4481V29.9208H12.8695C12.7048 28.6851 12.4567 28.1904 11.1339 28.1904H8.81873V33.712C8.81873 35.7728 9.31397 36.0201 10.6368 36.0201V36.68H4.35507V36.0201C5.92597 36.0201 6.17311 35.6085 6.17311 33.712V21.5973C6.17311 20.4437 5.67788 19.9491 4.35507 19.9491V19.3723H12.9529C14.4404 19.3723 14.7709 19.2901 15.0199 18.7955H15.5985L15.1847 22.5857Z" fill="white"/>
<path fill-rule="evenodd" clip-rule="evenodd" d="M104.382 23.5742V33.4647C104.382 35.6076 104.878 36.0192 106.201 36.0192V36.6791H96.4461V36.0192C97.1904 36.0192 97.8513 35.7719 97.8513 35.2772C97.8513 34.9478 97.7689 34.37 97.6032 33.7942L96.859 31.4039H91.4039C91.3215 31.7334 90.3292 34.4531 90.3292 35.1951C90.3292 35.855 91.0725 36.0192 91.5687 36.0192V36.6791H87.0226V36.0192C87.8493 36.0192 88.5102 35.9371 89.0888 34.2058L93.3053 20.7714C93.0572 20.1946 92.7267 20.0303 92.1482 19.9472V19.3704H95.8685L100.333 33.4638C100.746 34.9468 101.16 35.6888 101.821 36.0183C102.812 35.6879 103.06 35.3584 103.06 33.4638V21.5964C102.316 20.6071 102.234 19.9482 100.828 19.9482V19.3714H105.045L111.988 31.1566V22.1732C111.988 20.3598 111.576 19.9482 110.17 19.9482V19.3714H119.429V19.9482C118.851 19.9482 118.354 20.1955 118.354 20.7723C118.354 21.1839 118.519 21.5964 118.685 22.0911L121.33 27.7779L123.894 22.2554C124.307 21.5143 124.389 21.1018 124.389 20.6902C124.389 20.1955 124.058 19.9482 123.314 19.9482V19.3714H127.695V19.9482C126.621 19.9482 125.96 20.9375 125.464 22.0911L122.075 29.0136V33.5459C122.075 35.5246 122.571 36.0183 123.894 36.0183V36.6782H117.611V36.0183C118.934 36.0183 119.43 35.5236 119.43 33.5459V29.6726L115.793 22.0071C115.131 20.524 114.883 20.1946 114.47 19.9472C113.644 20.2767 113.396 20.8535 113.396 22.1723V34.8647C113.396 34.8647 113.478 35.854 113.561 37.0067L112.486 37.0898L104.382 23.5742ZM94.0477 22.75L91.7335 30.2494H96.5285L94.0477 22.75Z" fill="white"/>
<path fill-rule="evenodd" clip-rule="evenodd" d="M83.7975 30.2503C83.7975 30.2503 83.0542 30.2503 82.5581 30.2503V33.7941C82.5581 35.6076 83.0542 36.0192 84.4594 36.0192V36.6791H78.0944V36.0192C79.4172 36.0192 79.9124 35.5245 79.9124 33.7111V22.0911C79.9124 20.2776 79.4172 19.9481 78.0944 19.9481V19.3713H82.8895C87.5179 19.3713 90.2468 20.7723 90.2468 24.5635C90.2459 28.5189 86.9393 30.2503 83.7975 30.2503ZM82.9709 20.5249H82.5581V29.0136H83.3023C86.0303 29.0136 87.4355 27.7769 87.4355 24.6456C87.4355 21.5143 86.1941 20.5249 82.9709 20.5249Z" fill="white"/>
<path fill-rule="evenodd" clip-rule="evenodd" d="M54.9466 33.3825C51.8049 33.3825 49.6563 31.1565 49.6563 27.9431C49.6563 24.8929 51.8882 22.5036 54.9466 22.5036C57.9227 22.5036 60.1545 24.8117 60.1545 27.9431C60.1545 30.9923 57.8403 33.3825 54.9466 33.3825ZM54.9466 23.492C52.7972 23.492 52.0529 25.5528 52.0529 27.9431C52.0529 30.1681 52.7148 32.3941 54.9466 32.3941C57.0961 32.3941 57.757 30.1691 57.757 27.8609C57.758 25.6349 56.9304 23.492 54.9466 23.492Z" fill="white"/>
<path fill-rule="evenodd" clip-rule="evenodd" d="M18.5736 32.3932V31.8155C19.4003 31.8155 19.565 31.5681 19.565 31.3208C19.565 30.9913 19.4826 30.744 19.4003 30.4967C19.4003 30.4967 19.2346 29.8368 19.0689 29.3431H15.8447L15.5142 30.4145C15.4318 30.6609 15.3485 30.9083 15.3485 31.2387C15.3485 31.5681 15.6799 31.8155 16.1752 31.8155V32.3932H12.951V31.8155C13.7776 31.8155 14.1081 31.5681 14.4386 30.6619L16.9185 23.2447C16.8361 22.9143 16.5871 22.6679 16.0918 22.6679V22.0911H18.7375C20.8869 28.3547 21.4655 30.0039 21.4655 30.0039C21.8783 31.4039 22.2921 31.8164 22.954 31.8164V32.3941H18.5736V32.3932ZM17.4165 24.3983L16.177 28.4368H18.7393L17.4165 24.3983Z" fill="white"/>
</svg>
