<svg width="132" height="56" viewBox="0 0 132 56" fill="none" xmlns="http://www.w3.org/2000/svg">
<path fill-rule="evenodd" clip-rule="evenodd" d="M78.4136 20.8889C76.5806 20.8889 75.1408 21.2809 73.7 22.064C73.7 17.8873 73.7 14.1036 73.8311 12.7979L65.0601 14.364V15.1471L65.9766 15.2777C67.1553 15.5381 67.5485 16.1905 67.8096 17.7576C68.0718 20.8889 67.9407 37.5947 67.8096 40.3359C70.166 40.8595 72.6534 41.2505 75.1408 41.2505C82.0797 41.2505 86.2681 36.9432 86.2681 30.1569C86.2681 24.8052 82.8651 20.8889 78.4136 20.8889ZM75.4029 39.8141C74.8777 39.8141 74.2243 39.8141 73.8311 39.6844C73.7 37.8569 73.5699 30.1569 73.7 23.3707C74.4855 23.1093 75.0088 22.9787 75.6641 22.9787C78.5438 22.9787 80.1147 26.3713 80.1147 30.548C80.1156 35.7691 78.1515 39.8141 75.4029 39.8141Z" fill="white"/>
<path fill-rule="evenodd" clip-rule="evenodd" d="M32.0713 13.3205H9.03125V14.4946L10.34 14.6253C12.042 14.8857 12.6964 15.9301 12.9575 18.4109C13.3507 23.1084 13.2197 31.5933 12.9575 35.6384C12.6964 38.1182 12.042 39.2933 10.34 39.423L9.03125 39.6844V40.7288H23.8237V39.6844L22.2528 39.423C20.5508 39.2933 19.8955 38.1182 19.6353 35.6384C19.5033 33.9406 19.3731 31.2004 19.3731 27.8077L22.5149 27.9384C24.479 27.9384 25.3946 29.5045 25.7878 31.723H26.9655V22.4578H25.7878C25.3946 24.6764 24.479 26.2416 22.5149 26.2416L19.3731 26.3713C19.3731 21.9352 19.5042 17.7585 19.6353 15.2786H24.2159C27.7518 15.2786 29.5839 17.4962 30.8927 21.4125L32.2015 21.0214L32.0713 13.3205Z" fill="white"/>
<path fill-rule="evenodd" clip-rule="evenodd" d="M39.5336 20.6295C46.0793 20.6295 49.3521 25.0665 49.3521 30.9391C49.3521 36.5521 45.6861 41.2505 39.1404 41.2505C32.5947 41.2505 29.3228 36.8125 29.3228 30.9391C29.3228 25.3279 32.9879 20.6295 39.5336 20.6295ZM39.1404 21.9343C36.2607 21.9343 35.4753 25.8487 35.4753 30.9381C35.4753 35.8969 36.784 39.9439 39.4034 39.9439C42.4132 39.9439 43.1996 36.0276 43.1996 30.9381C43.1996 25.9793 41.8899 21.9343 39.1404 21.9343Z" fill="white"/>
<path fill-rule="evenodd" clip-rule="evenodd" d="M87.971 31.0697C87.971 25.7189 91.374 20.6285 98.0508 20.6285C103.549 20.6285 106.167 24.6745 106.167 30.0253H93.9915C93.8614 34.8535 96.2177 38.3787 100.931 38.3787C103.026 38.3787 104.072 37.8551 105.382 36.9432L105.905 37.5947C104.596 39.4221 101.716 41.2505 98.0508 41.2505C92.1585 41.2505 87.971 37.0748 87.971 31.0697ZM93.9915 28.5917L100.145 28.4601C100.145 25.8496 99.7518 21.9352 97.5265 21.9352C95.3012 21.9343 94.1226 25.5883 93.9915 28.5917Z" fill="white"/>
<path fill-rule="evenodd" clip-rule="evenodd" d="M121.744 21.6748C120.173 21.0205 118.079 20.6295 115.723 20.6295C110.879 20.6295 107.868 23.4995 107.868 26.894C107.868 30.2876 110.093 31.7221 113.236 32.7675C116.508 33.9407 117.425 34.8544 117.425 36.4205C117.425 37.9876 116.247 39.4231 114.152 39.4231C111.665 39.4231 109.831 37.9876 108.392 34.0723L107.475 34.3336L107.605 40.0764C109.176 40.7288 112.056 41.2515 114.545 41.2515C119.65 41.2515 122.923 38.64 122.923 34.5949C122.923 31.8537 121.482 30.2885 118.079 28.9819C114.413 27.5464 113.104 26.6345 113.104 24.9368C113.104 23.24 114.283 22.0649 115.854 22.0649C118.211 22.0649 119.782 23.5004 120.96 27.0237L121.876 26.7633L121.744 21.6748Z" fill="white"/>
<path fill-rule="evenodd" clip-rule="evenodd" d="M66.3698 21.1521C64.1445 19.8464 60.2173 20.4979 58.1221 25.1972L58.2532 20.6295L49.4813 22.3272V23.1093L50.3978 23.24C51.5764 23.3716 52.0988 24.0231 52.2308 25.7199C52.4929 28.8521 52.3619 34.3336 52.2308 37.0757C52.0997 38.6409 51.5764 39.424 50.3978 39.5547L49.4813 39.6853V40.7297H61.6562V39.6853L60.0853 39.5547C58.7765 39.424 58.3842 38.6409 58.2522 37.0757C57.9911 34.5949 57.9911 29.6361 58.1212 26.5039C58.7756 25.5901 61.6562 24.8061 64.2737 26.5039L66.3698 21.1521Z" fill="white"/>
</svg>
