<svg width="30" height="30" viewBox="0 0 30 30" fill="none" xmlns="http://www.w3.org/2000/svg">
<path d="M27.0351 14.2885C27.0351 17.2681 24.6111 19.6921 21.6316 19.6921H19.5459V17.3483H21.6316C23.3188 17.3483 24.6914 15.9757 24.6914 14.2885C24.6914 12.2136 23.2959 11.1393 21.8098 11.1336C21.7334 7.6823 19.4287 6.15418 17.2005 6.15418C14.2529 6.15418 13.042 8.38543 12.7397 9.23984C11.538 7.50652 8.27631 8.81516 8.95219 11.1352C6.92871 10.7683 5.30859 12.2918 5.30859 14.2885C5.30859 15.9757 6.68133 17.3483 8.36853 17.3483H10.7569V19.6921H8.36853C5.38892 19.6921 2.96484 17.2681 2.96484 14.2885C2.96484 11.8623 4.57975 9.76936 6.84105 9.10514C7.47703 6.93728 9.75803 5.6665 11.9347 6.24699C13.2378 4.70603 15.1441 3.81042 17.2006 3.81042C20.5472 3.81042 23.3743 6.20199 23.9846 9.42236C25.8364 10.3132 27.0351 12.1842 27.0351 14.2885ZM17.9034 17.2131C17.9034 15.4108 18.2582 14.3722 19.774 13.8829C18.5983 13.3876 12.4477 12.1944 12.4477 17.8099C12.4477 19.6958 12.4477 21.2615 12.4477 21.2615H10.2559L15.1756 26.1895L20.0953 21.2615H17.9034C17.9034 21.2615 17.9034 18.7886 17.9034 17.2131Z" fill="black"/>
</svg>
