<svg width="82" height="22" viewBox="0 0 82 22" fill="none" xmlns="http://www.w3.org/2000/svg">
<path d="M0.239258 21V19.3389L2.38818 18.9697V3.84814L0.239258 3.479V1.80469H2.38818H5.85547L12.0386 16.3726H12.1177L18.103 1.80469H23.8906V3.479L21.7417 3.84814V18.9697L23.8906 19.3389V21H16.9956V19.3389L19.2632 18.9697V13.4062V5.35107L19.1973 5.33789L12.9614 20.3145H11.2344L4.7876 5.36426L4.72168 5.37744L4.81396 13.4062V18.9697L7.13428 19.3389V21H0.239258ZM32.605 21.2769C31.2866 21.2769 30.1396 20.978 29.1641 20.3804C28.1885 19.7739 27.4326 18.9346 26.8965 17.8623C26.3691 16.79 26.1055 15.5508 26.1055 14.1445V13.5645C26.1055 12.2109 26.3823 11.0024 26.936 9.93896C27.4985 8.8667 28.2412 8.02295 29.1641 7.40771C30.0957 6.78369 31.1108 6.47168 32.2095 6.47168C33.4927 6.47168 34.5649 6.73535 35.4263 7.2627C36.2964 7.79004 36.9512 8.53271 37.3906 9.49072C37.8301 10.4399 38.0498 11.5605 38.0498 12.8525V14.4741H28.7949L28.7554 14.54C28.7729 15.4541 28.9312 16.2671 29.23 16.979C29.5376 17.6821 29.9771 18.2358 30.5483 18.6401C31.1196 19.0444 31.8052 19.2466 32.605 19.2466C33.4839 19.2466 34.2529 19.1235 34.9121 18.8774C35.5801 18.6226 36.1558 18.2754 36.6392 17.8359L37.6543 19.5234C37.1445 20.0156 36.4678 20.4331 35.624 20.7759C34.7891 21.1099 33.7827 21.2769 32.605 21.2769ZM28.874 12.4438H35.4526V12.1011C35.4526 11.4155 35.3296 10.8047 35.0835 10.2686C34.8462 9.72363 34.4858 9.29736 34.0024 8.98975C33.5278 8.67334 32.9302 8.51514 32.2095 8.51514C31.6294 8.51514 31.1021 8.68652 30.6274 9.0293C30.1528 9.36328 29.7617 9.82031 29.4541 10.4004C29.1465 10.9805 28.9443 11.6396 28.8477 12.3779L28.874 12.4438ZM45.1162 21.2241C44.0615 21.2241 43.2222 20.9165 42.5981 20.3013C41.9829 19.6772 41.6753 18.6841 41.6753 17.3218V8.66016H39.4209V6.73535H41.6753V3.29443H44.2725V6.73535H47.3706V8.66016H44.2725V17.3218C44.2725 18.0073 44.4087 18.5127 44.6812 18.8379C44.9536 19.1631 45.3184 19.3257 45.7754 19.3257C46.083 19.3257 46.4258 19.2993 46.8037 19.2466C47.1816 19.1851 47.4761 19.1323 47.687 19.0884L48.043 20.7891C47.665 20.9033 47.1992 21.0044 46.6455 21.0923C46.1006 21.1802 45.5908 21.2241 45.1162 21.2241ZM49.6777 21V19.3389L51.8267 18.9697V8.77881L49.6777 8.40967V6.73535H54.147L54.3711 8.55469L54.3975 8.80518C54.8018 8.07568 55.2983 7.50439 55.8872 7.09131C56.4849 6.67822 57.166 6.47168 57.9307 6.47168C58.2031 6.47168 58.48 6.49805 58.7612 6.55078C59.0513 6.59473 59.2578 6.63867 59.3809 6.68262L59.0381 9.09521L57.2319 8.98975C56.5464 8.9458 55.9707 9.104 55.5049 9.46436C55.0391 9.81592 54.6787 10.2905 54.4238 10.8882V18.9697L56.5728 19.3389V21H49.6777ZM60.8706 21V19.3389L63.0195 18.9697V8.77881L60.8706 8.40967V6.73535H65.6167V18.9697L67.7656 19.3389V21H60.8706ZM62.8877 3.21533V0.433594H65.6167V3.21533H62.8877ZM76.0054 21.2769C74.7134 21.2769 73.5884 20.978 72.6304 20.3804C71.6724 19.7739 70.9297 18.9346 70.4023 17.8623C69.875 16.79 69.6113 15.5508 69.6113 14.1445V13.5908C69.6113 12.2373 69.8662 11.0244 70.376 9.95215C70.8857 8.87988 71.6196 8.03174 72.5776 7.40771C73.5356 6.78369 74.6782 6.47168 76.0054 6.47168C77.1567 6.47168 78.1631 6.66064 79.0244 7.03857C79.8945 7.4165 80.624 7.93506 81.2129 8.59424L81.2788 12.022H79.2485L78.8003 9.53027C78.5015 9.22266 78.1279 8.97656 77.6797 8.79199C77.2314 8.60742 76.7041 8.51514 76.0977 8.51514C75.3242 8.51514 74.6431 8.74365 74.0542 9.20068C73.4741 9.65771 73.0215 10.2686 72.6963 11.0332C72.3711 11.7979 72.2085 12.6504 72.2085 13.5908V14.1445C72.2085 15.1816 72.3579 16.0825 72.6567 16.8472C72.9644 17.6118 73.3994 18.2051 73.9619 18.627C74.5332 19.04 75.21 19.2466 75.9922 19.2466C76.8711 19.2466 77.6006 19.0049 78.1807 18.5215C78.7607 18.0381 79.1167 17.3745 79.2485 16.5308H81.582L81.6084 16.6099C81.5645 17.4272 81.3228 18.1919 80.8833 18.9038C80.4438 19.6157 79.8154 20.1914 78.998 20.6309C78.1895 21.0615 77.1919 21.2769 76.0054 21.2769Z" fill="#1C1C1C"/>
</svg>
