<svg width="132" height="56" viewBox="0 0 132 56" fill="none" xmlns="http://www.w3.org/2000/svg">
<path d="M12.365 23.5172V35.2585H8.06325V23.5172H3.71661V19.7811H16.7125V23.5172H12.365Z" fill="white"/>
<path d="M26.7548 30.5928H19.9255C20.0584 31.8752 20.812 32.4492 21.8989 32.4492C22.9184 32.4492 23.7619 32.228 24.9153 31.6307L26.445 34.174C25.0042 35.014 23.5176 35.5003 21.6995 35.5003C18.1954 35.5003 16.266 33.0232 16.266 29.4635C16.266 25.4623 18.5278 23.4061 21.5881 23.4061C24.7823 23.4061 26.7782 25.5061 26.7782 29.8181C26.7782 30.1504 26.7782 30.3931 26.7548 30.5928ZM21.4777 26.3471C20.5677 26.3471 20.0584 26.9668 19.9255 28.1157H23.2526C23.0514 26.9435 22.6525 26.3471 21.4777 26.3471Z" fill="white"/>
<path d="M34.1814 35.5003C30.7672 35.5003 28.7264 33.334 28.7264 29.4205C28.7264 25.8608 30.5444 23.4061 34.2704 23.4061C36.4657 23.4061 37.7305 24.4235 38.7509 26.0596L36.0004 28.1381C35.4462 27.1208 35.068 26.6345 34.2048 26.6345C33.1835 26.6345 32.6742 27.6519 32.6742 29.4868C32.6742 31.3227 33.2284 32.2728 34.3153 32.2728C35.0689 32.2728 35.6016 31.8528 36.3337 30.7692L38.8614 32.7367C37.5086 34.7265 36.2438 35.5003 34.1814 35.5003Z" fill="white"/>
<path d="M47.7962 35.2576V28.6673C47.7962 27.1637 47.286 26.7661 46.4659 26.7661C45.6233 26.7661 45.1122 27.1637 45.1122 28.6234V35.2576H41.1204V20.7312L45.1122 19.1389V24.4234C45.8443 23.8709 46.6653 23.4061 48.0396 23.4061C50.5897 23.4061 51.8105 25.1085 51.8105 28.1596V35.2576H47.7962Z" fill="white"/>
<path d="M61.365 35.5002C56.7525 35.5002 54.2904 32.0954 54.2904 27.5184C54.2904 22.5437 57.2178 19.5365 61.3866 19.5365C65.2015 19.5365 66.7106 21.1726 67.7741 24.0912L63.8721 25.6172C63.317 24.1798 62.7843 23.2726 61.365 23.2726C59.5695 23.2726 58.7924 25.0637 58.7924 27.5184C58.7924 29.8844 59.5461 31.7632 61.409 31.7632C62.7609 31.7632 63.3385 31.0342 64.1801 29.5745L67.8171 31.4981C66.7761 33.5328 65.0461 35.5002 61.365 35.5002Z" fill="white"/>
<path d="M77.6376 28.0271C77.1283 27.4745 76.5516 27.0545 75.7755 27.0545C74.7991 27.0545 74.2 27.5184 74.2 28.9333V35.2576H70.2081V23.6497H74.2V24.4897C74.8871 23.8261 75.6632 23.4061 76.6846 23.4061C77.5271 23.4061 78.1038 23.6049 78.5691 23.8924L77.6376 28.0271Z" fill="white"/>
<path d="M87.1275 35.2576V34.482C86.417 35.0345 85.5754 35.5003 84.2226 35.5003C81.6725 35.5003 80.4526 33.7979 80.4526 30.7459V23.6488H84.4669V30.2381C84.4669 31.7408 84.9762 32.1393 85.7972 32.1393C86.6173 32.1393 87.1275 31.7408 87.1275 30.2811V23.6488H91.1418V35.2576H87.1275Z" fill="white"/>
<path d="M100.697 35.2576V28.6673C100.697 27.1637 100.187 26.7661 99.367 26.7661C98.5235 26.7661 98.0133 27.1637 98.0133 28.6235V35.2576H94.0215V23.6497H98.0133V24.4235C98.7454 23.8709 99.5664 23.4061 100.941 23.4061C103.492 23.4061 104.712 25.1085 104.712 28.1596V35.2576H100.697Z" fill="white"/>
<path d="M112.491 35.5003C109.077 35.5003 107.036 33.334 107.036 29.4205C107.036 25.8608 108.855 23.4061 112.58 23.4061C114.776 23.4061 116.04 24.4235 117.061 26.0596L114.31 28.1381C113.756 27.1208 113.378 26.6345 112.515 26.6345C111.494 26.6345 110.984 27.6519 110.984 29.4868C110.984 31.3227 111.538 32.2728 112.625 32.2728C113.379 32.2728 113.911 31.8528 114.642 30.7692L117.17 32.7367C115.818 34.7265 114.554 35.5003 112.491 35.5003Z" fill="white"/>
<path d="M126.106 35.2576V28.6673C126.106 27.1637 125.596 26.7661 124.776 26.7661C123.932 26.7661 123.422 27.1637 123.422 28.6234V35.2576H119.43V20.7312L123.422 19.1389V24.4234C124.154 23.8709 124.975 23.4061 126.349 23.4061C128.9 23.4061 130.12 25.1085 130.12 28.1596V35.2576H126.106Z" fill="white"/>
</svg>
