<svg width="16" height="16" viewBox="0 0 16 16" fill="none" xmlns="http://www.w3.org/2000/svg">
<g clip-path="url(#clip0_1_329)">
<path d="M0 2C0 0.89543 0.89543 0 2 0H14C15.1046 0 16 0.89543 16 2V14C16 15.1046 15.1046 16 14 16H2C0.89543 16 0 15.1046 0 14V2Z" fill="#4353FF"/>
<path d="M10.836 6.70399C10.836 6.70399 10.024 9.24799 9.96395 9.46399C9.93995 9.25199 9.34795 4.67999 9.34795 4.67999C7.96395 4.67999 7.22795 5.66399 6.83595 6.70399C6.83595 6.70399 5.84795 9.25599 5.76795 9.46799C5.76395 9.26799 5.61595 6.72799 5.61595 6.72799C5.53195 5.45199 4.36795 4.67999 3.42395 4.67999L4.55995 11.604C6.00795 11.6 6.78795 10.62 7.19595 9.57599C7.19595 9.57599 8.06395 7.32399 8.09995 7.22399C8.10795 7.31999 8.72395 11.604 8.72395 11.604C10.176 11.604 10.9599 10.688 11.38 9.68399L13.4159 4.67999C11.9799 4.67999 11.224 5.65999 10.836 6.70399Z" fill="white"/>
</g>
<defs>
<clipPath id="clip0_1_329">
<rect width="16" height="16" fill="white"/>
</clipPath>
</defs>
</svg>
