<svg width="132" height="56" viewBox="0 0 132 56" fill="none" xmlns="http://www.w3.org/2000/svg">
<path d="M53.5311 40.669H76.9532V16.8905H53.5311V40.669ZM58.9029 20.6742H68.214C68.214 20.6742 72.2255 20.4596 72.2255 24.8164C72.2255 29.1722 69.7905 29.386 69.7905 29.386C69.7905 29.386 72.2255 29.5288 72.2255 32.885C72.2255 36.2413 72.2255 36.5988 72.2255 36.5988H69.0023V33.0988C69.0023 33.0988 69.0023 30.3865 67.1402 30.3865C65.2782 30.3865 62.055 30.4574 62.055 30.4574V36.6697H58.9038V20.6742H58.9029Z" fill="white"/>
<path d="M69.0023 25.3876C69.0023 23.1028 66.5673 23.4602 66.5673 23.4602H62.055V27.888C62.055 27.888 64.4909 27.8161 66.4962 27.8161C68.5015 27.8152 69.0023 27.3877 69.0023 25.3876Z" fill="white"/>
<path d="M36.4489 23.352C36.4489 23.352 40.1851 23.352 40.3883 23.352V34.0648C40.1851 34.0648 36.4489 34.0648 36.4489 34.0648V36.778H47.7662V34.0648C47.7662 34.0648 43.6723 34.0648 43.4683 34.0648V23.352C43.6723 23.352 47.7662 23.352 47.7662 23.352V20.6397H36.4489V23.352Z" fill="white"/>
<path d="M6.68799 40.669H30.11V16.8905H6.68799V40.669ZM11.9165 20.7461L14.1371 32.9569L17.0018 20.7461L20.5115 20.817L23.3771 33.1706L25.5265 20.7461H28.6056L25.3112 36.7416H21.2997L18.7215 25.102L15.928 36.8125H11.9886L8.69326 20.7452H11.9165V20.7461Z" fill="white"/>
<path d="M100.159 16.8905V40.67H123.581V16.8905H100.159ZM113.911 36.8853C108.039 36.8853 105.388 36.9562 105.388 36.9562V20.7461H112.336C112.336 20.7461 119.497 19.9602 119.497 26.3872V30.8858C119.498 30.8858 119.785 36.8853 113.911 36.8853Z" fill="white"/>
<path d="M113.554 23.3884H108.683V34.0993C108.683 34.0993 111.333 34.0993 113.768 34.0993C116.203 34.0993 116.274 30.9568 116.274 30.9568C116.274 30.9568 116.274 30.4574 116.274 26.8156C116.274 23.1737 113.554 23.3884 113.554 23.3884Z" fill="white"/>
<path d="M81.2502 23.3165H83.4708V34.0993H81.2502V36.7416H94.9304V31.5289H92.209V34.0993H86.4075V29.7444H90.7046V27.1012H86.4075V23.3165H91.9946V25.8879H94.9304V20.6743H81.2502V23.3165Z" fill="white"/>
</svg>
