<svg width="132" height="56" viewBox="0 0 132 56" fill="none" xmlns="http://www.w3.org/2000/svg">
<path fill-rule="evenodd" clip-rule="evenodd" d="M51.2984 14.6281H39.3126V35.2016H24.9293L38.8651 14.6281H17.7095L13.8066 20.4353H26.6172L12.6093 41.0097H41.1624L46.1934 33.614V20.4353H50.0383C54.4589 20.4353 57.5847 23.0953 57.5847 27.8189C57.5847 32.9616 54.0741 35.2016 49.9681 35.2016H46.9274V41.0097H51.2993C58.6379 41.0097 64.7427 35.238 64.7427 27.8189C64.7427 20.4017 58.6707 14.6281 51.2984 14.6281ZM80.8242 25.3213C80.8645 27.1861 81.0601 30.6441 81.2558 32.7432C80.7081 30.8019 79.6578 27.9645 78.2919 25.0871L73.1083 14.2847H67.0672V41.2925H72.3266L72.1703 29.75C72.131 27.4969 72.0935 24.3105 71.8969 22.0967C72.4053 23.7673 74.0435 27.5753 75.562 30.9559L80.2007 41.2925H85.8927V14.2856H80.7063L80.8242 25.3213ZM97.3982 20.9701C94.7498 20.9701 92.7595 21.8251 91.1249 23.6516C89.3705 25.5948 88.6291 27.9645 88.6291 31.5392C88.6291 37.7944 92.3344 41.8367 98.0591 41.8367C100.867 41.8367 103.282 40.9425 105.581 39.0787L103.554 35.9697C101.959 37.2895 100.281 37.9503 98.4898 37.9503C95.7983 37.9503 94.2798 36.2021 94.2798 33.1296V32.9756H105.816V31.7716C105.816 27.6145 104.996 24.9312 103.164 23.0673C101.881 21.7467 99.6974 20.9701 97.3982 20.9701ZM100.398 29.1685H94.3575V29.0911C94.3575 26.3312 95.4903 24.7781 97.474 24.7781C98.5281 24.7781 99.2687 25.1655 99.7761 25.9439C100.245 26.6812 100.398 27.4577 100.398 28.9352V29.1685ZM119.79 37.7552C118.856 38.0287 118.388 38.1444 117.92 38.1444C116.129 38.1444 115.66 37.4827 115.66 34.9571V24.9704H119.013L120.335 21.3948H115.66C115.66 19.3751 115.777 17.1985 115.969 15.372L110.67 16.6945C110.476 18.172 110.476 19.4525 110.476 21.3957H108.489V24.9713H110.476V35.7747C110.476 37.6012 110.514 37.9876 110.826 38.8453C111.45 40.5916 113.557 41.7573 116.205 41.7573C117.571 41.7573 118.934 41.4857 120.455 40.8651L119.79 37.7552Z" fill="white"/>
</svg>
